<mxfile host="app.diagrams.net" modified="2023-09-15T19:53:03.894Z" agent="Mozilla/5.0 (Windows NT 10.0; Win64; x64) AppleWebKit/537.36 (KHTML, like Gecko) Chrome/116.0.0.0 Safari/537.36" etag="4702lUN_SdGVKLH0s-Ro" version="21.7.5" type="github">
  <diagram name="Page-1" id="eFn1Sq82ObS526zrl6dM">
    <mxGraphModel dx="2537" dy="882" grid="1" gridSize="10" guides="1" tooltips="1" connect="1" arrows="1" fold="1" page="1" pageScale="1" pageWidth="850" pageHeight="1100" math="0" shadow="0">
      <root>
        <mxCell id="0" />
        <mxCell id="1" parent="0" />
        <mxCell id="JJR9BL4tO18YjHwOmcb9-21" value="" style="rounded=0;whiteSpace=wrap;html=1;dashed=1;dashPattern=1 1;strokeColor=#00FF00;strokeWidth=2;fillColor=none;" vertex="1" parent="1">
          <mxGeometry x="360" y="305" width="460" height="485" as="geometry" />
        </mxCell>
        <mxCell id="JJR9BL4tO18YjHwOmcb9-1" value="Ulta Beauty CyrusOne" style="rounded=0;whiteSpace=wrap;html=1;verticalAlign=top;fillColor=#ffe6cc;strokeColor=#d79b00;" vertex="1" parent="1">
          <mxGeometry x="190" y="400" width="160" height="85" as="geometry" />
        </mxCell>
        <mxCell id="JJR9BL4tO18YjHwOmcb9-13" value="&amp;nbsp;Host Project: ulta-network-prod" style="rounded=0;whiteSpace=wrap;html=1;verticalAlign=top;align=left;dashed=1;dashPattern=12 12;fillColor=#dae8fc;strokeColor=#6c8ebf;" vertex="1" parent="1">
          <mxGeometry x="395" y="345" width="390" height="415" as="geometry" />
        </mxCell>
        <mxCell id="JJR9BL4tO18YjHwOmcb9-88" style="edgeStyle=orthogonalEdgeStyle;rounded=0;orthogonalLoop=1;jettySize=auto;html=1;exitX=1;exitY=0.75;exitDx=0;exitDy=0;entryX=0;entryY=0.5;entryDx=0;entryDy=0;" edge="1" parent="1" source="JJR9BL4tO18YjHwOmcb9-14" target="JJR9BL4tO18YjHwOmcb9-85">
          <mxGeometry relative="1" as="geometry" />
        </mxCell>
        <mxCell id="JJR9BL4tO18YjHwOmcb9-14" value="&amp;nbsp;Shared VPC: ulta-network-prod-mgmt" style="rounded=0;whiteSpace=wrap;html=1;verticalAlign=top;align=right;fillColor=#F4F7FC;strokeColor=#6c8ebf;" vertex="1" parent="1">
          <mxGeometry x="500" y="375" width="265" height="140" as="geometry" />
        </mxCell>
        <mxCell id="JJR9BL4tO18YjHwOmcb9-87" style="edgeStyle=orthogonalEdgeStyle;rounded=0;orthogonalLoop=1;jettySize=auto;html=1;exitX=1;exitY=0.25;exitDx=0;exitDy=0;" edge="1" parent="1" source="JJR9BL4tO18YjHwOmcb9-15" target="JJR9BL4tO18YjHwOmcb9-85">
          <mxGeometry relative="1" as="geometry" />
        </mxCell>
        <mxCell id="JJR9BL4tO18YjHwOmcb9-15" value="&amp;nbsp;Shared VPC: ulta-network-prod" style="rounded=0;whiteSpace=wrap;html=1;verticalAlign=top;align=right;fillColor=#F4F7FC;strokeColor=#6c8ebf;" vertex="1" parent="1">
          <mxGeometry x="500" y="545" width="265" height="195" as="geometry" />
        </mxCell>
        <mxCell id="JJR9BL4tO18YjHwOmcb9-18" value="Firewall Appliance&lt;br&gt;?" style="rounded=1;whiteSpace=wrap;html=1;" vertex="1" parent="1">
          <mxGeometry x="215" y="430" width="110" height="35" as="geometry" />
        </mxCell>
        <mxCell id="JJR9BL4tO18YjHwOmcb9-22" value="Perimeter = None" style="text;html=1;align=center;verticalAlign=middle;resizable=0;points=[];autosize=1;strokeColor=none;fillColor=none;" vertex="1" parent="1">
          <mxGeometry x="360" y="305" width="120" height="30" as="geometry" />
        </mxCell>
        <mxCell id="JJR9BL4tO18YjHwOmcb9-27" value="Service Project" style="rounded=1;whiteSpace=wrap;html=1;dashed=1;dashPattern=12 12;verticalAlign=top;" vertex="1" parent="1">
          <mxGeometry x="570" y="415" width="120" height="75" as="geometry" />
        </mxCell>
        <mxCell id="JJR9BL4tO18YjHwOmcb9-28" value="Service Project" style="rounded=1;whiteSpace=wrap;html=1;dashed=1;dashPattern=12 12;verticalAlign=top;" vertex="1" parent="1">
          <mxGeometry x="530" y="585" width="210" height="145" as="geometry" />
        </mxCell>
        <mxCell id="JJR9BL4tO18YjHwOmcb9-71" style="edgeStyle=orthogonalEdgeStyle;rounded=0;orthogonalLoop=1;jettySize=auto;html=1;exitX=0.5;exitY=1;exitDx=0;exitDy=0;entryX=0.5;entryY=1;entryDx=0;entryDy=0;endArrow=none;endFill=0;" edge="1" parent="1" source="JJR9BL4tO18YjHwOmcb9-29" target="JJR9BL4tO18YjHwOmcb9-14">
          <mxGeometry relative="1" as="geometry">
            <Array as="points">
              <mxPoint x="633" y="485" />
            </Array>
          </mxGeometry>
        </mxCell>
        <mxCell id="JJR9BL4tO18YjHwOmcb9-72" value="Loaded&amp;nbsp; &amp;nbsp;at startup" style="edgeLabel;html=1;align=center;verticalAlign=middle;resizable=0;points=[];labelBackgroundColor=none;" vertex="1" connectable="0" parent="JJR9BL4tO18YjHwOmcb9-71">
          <mxGeometry x="0.2427" y="2" relative="1" as="geometry">
            <mxPoint x="3" as="offset" />
          </mxGeometry>
        </mxCell>
        <mxCell id="JJR9BL4tO18YjHwOmcb9-29" value="VM Interface" style="ellipse;whiteSpace=wrap;html=1;" vertex="1" parent="1">
          <mxGeometry x="600" y="445" width="60" height="40" as="geometry" />
        </mxCell>
        <mxCell id="JJR9BL4tO18YjHwOmcb9-30" value="VM/K8 Interface" style="ellipse;whiteSpace=wrap;html=1;" vertex="1" parent="1">
          <mxGeometry x="660" y="615" width="60" height="40" as="geometry" />
        </mxCell>
        <mxCell id="JJR9BL4tO18YjHwOmcb9-37" value="Firewall Rules" style="rounded=1;whiteSpace=wrap;html=1;rotation=0;" vertex="1" parent="1">
          <mxGeometry x="572.5" y="520" width="120" height="20" as="geometry" />
        </mxCell>
        <mxCell id="JJR9BL4tO18YjHwOmcb9-79" style="edgeStyle=orthogonalEdgeStyle;rounded=0;orthogonalLoop=1;jettySize=auto;html=1;exitX=0.875;exitY=0.5;exitDx=0;exitDy=0;exitPerimeter=0;entryX=0;entryY=0.5;entryDx=0;entryDy=0;" edge="1" parent="1" source="JJR9BL4tO18YjHwOmcb9-62" target="JJR9BL4tO18YjHwOmcb9-78">
          <mxGeometry relative="1" as="geometry">
            <Array as="points">
              <mxPoint x="410" y="585" />
              <mxPoint x="410" y="700" />
            </Array>
          </mxGeometry>
        </mxCell>
        <mxCell id="JJR9BL4tO18YjHwOmcb9-82" style="edgeStyle=orthogonalEdgeStyle;rounded=0;orthogonalLoop=1;jettySize=auto;html=1;exitX=0.875;exitY=0.5;exitDx=0;exitDy=0;exitPerimeter=0;entryX=0;entryY=0.5;entryDx=0;entryDy=0;" edge="1" parent="1" source="JJR9BL4tO18YjHwOmcb9-62" target="JJR9BL4tO18YjHwOmcb9-80">
          <mxGeometry relative="1" as="geometry" />
        </mxCell>
        <mxCell id="JJR9BL4tO18YjHwOmcb9-62" value="Public Internet" style="ellipse;shape=cloud;whiteSpace=wrap;html=1;" vertex="1" parent="1">
          <mxGeometry x="205" y="555" width="130" height="60" as="geometry" />
        </mxCell>
        <mxCell id="JJR9BL4tO18YjHwOmcb9-69" style="edgeStyle=orthogonalEdgeStyle;rounded=0;orthogonalLoop=1;jettySize=auto;html=1;exitX=1;exitY=0.5;exitDx=0;exitDy=0;" edge="1" parent="1" source="JJR9BL4tO18YjHwOmcb9-63" target="JJR9BL4tO18YjHwOmcb9-18">
          <mxGeometry relative="1" as="geometry" />
        </mxCell>
        <mxCell id="JJR9BL4tO18YjHwOmcb9-76" style="edgeStyle=orthogonalEdgeStyle;rounded=0;orthogonalLoop=1;jettySize=auto;html=1;exitX=1;exitY=0.75;exitDx=0;exitDy=0;entryX=0.16;entryY=0.55;entryDx=0;entryDy=0;entryPerimeter=0;" edge="1" parent="1" source="JJR9BL4tO18YjHwOmcb9-63" target="JJR9BL4tO18YjHwOmcb9-62">
          <mxGeometry relative="1" as="geometry" />
        </mxCell>
        <mxCell id="JJR9BL4tO18YjHwOmcb9-63" value="Ulta Beauty Systems" style="rounded=0;whiteSpace=wrap;html=1;verticalAlign=top;fillColor=#ffe6cc;strokeColor=#d79b00;" vertex="1" parent="1">
          <mxGeometry x="-90" y="420" width="160" height="200" as="geometry" />
        </mxCell>
        <mxCell id="JJR9BL4tO18YjHwOmcb9-64" value="End User System" style="rounded=1;whiteSpace=wrap;html=1;" vertex="1" parent="1">
          <mxGeometry x="-70" y="470" width="120" height="60" as="geometry" />
        </mxCell>
        <mxCell id="JJR9BL4tO18YjHwOmcb9-65" value="Internal Application" style="rounded=1;whiteSpace=wrap;html=1;" vertex="1" parent="1">
          <mxGeometry x="-70" y="550" width="120" height="60" as="geometry" />
        </mxCell>
        <mxCell id="JJR9BL4tO18YjHwOmcb9-78" value="Managed Service" style="ellipse;whiteSpace=wrap;html=1;" vertex="1" parent="1">
          <mxGeometry x="660" y="680" width="60" height="40" as="geometry" />
        </mxCell>
        <mxCell id="JJR9BL4tO18YjHwOmcb9-81" style="edgeStyle=orthogonalEdgeStyle;rounded=0;orthogonalLoop=1;jettySize=auto;html=1;exitX=1;exitY=0.5;exitDx=0;exitDy=0;" edge="1" parent="1" source="JJR9BL4tO18YjHwOmcb9-80" target="JJR9BL4tO18YjHwOmcb9-30">
          <mxGeometry relative="1" as="geometry" />
        </mxCell>
        <mxCell id="JJR9BL4tO18YjHwOmcb9-80" value="External LB" style="ellipse;whiteSpace=wrap;html=1;" vertex="1" parent="1">
          <mxGeometry x="560" y="615" width="60" height="40" as="geometry" />
        </mxCell>
        <mxCell id="JJR9BL4tO18YjHwOmcb9-83" style="edgeStyle=orthogonalEdgeStyle;rounded=0;orthogonalLoop=1;jettySize=auto;html=1;exitX=1;exitY=0.5;exitDx=0;exitDy=0;entryX=0;entryY=0.5;entryDx=0;entryDy=0;" edge="1" parent="1" source="JJR9BL4tO18YjHwOmcb9-18" target="JJR9BL4tO18YjHwOmcb9-29">
          <mxGeometry relative="1" as="geometry" />
        </mxCell>
        <mxCell id="JJR9BL4tO18YjHwOmcb9-84" value="&lt;b&gt;From Corporate&lt;/b&gt;&lt;br&gt;- Google APIs are access through public internet (not aware of proxy)&lt;br&gt;- External load balances exist and are access via public internet&amp;nbsp;&lt;br&gt;- VM access is going through interconnects&lt;br&gt;&lt;span style=&quot;white-space: pre;&quot;&gt;&#x9;&lt;/span&gt;- Assumed firewall associated to interconnect interfaces&lt;br&gt;- VM access is enforced by local firewall rules (on interface)&lt;br&gt;&lt;span style=&quot;white-space: pre;&quot;&gt;&#x9;&lt;/span&gt;- Firewall rules are sourced from VPC when VM starts up&lt;br&gt;&lt;div style=&quot;&quot;&gt;&lt;br&gt;&lt;/div&gt;" style="text;html=1;align=left;verticalAlign=middle;resizable=0;points=[];autosize=1;strokeColor=none;fillColor=none;" vertex="1" parent="1">
          <mxGeometry x="-90" y="640" width="390" height="130" as="geometry" />
        </mxCell>
        <mxCell id="JJR9BL4tO18YjHwOmcb9-85" value="Google Cloud Platform" style="rounded=0;whiteSpace=wrap;html=1;verticalAlign=top;align=center;dashed=1;dashPattern=12 12;fillColor=#dae8fc;strokeColor=#6c8ebf;" vertex="1" parent="1">
          <mxGeometry x="920" y="507.5" width="160" height="90" as="geometry" />
        </mxCell>
        <mxCell id="JJR9BL4tO18YjHwOmcb9-86" value="Managed Service" style="ellipse;whiteSpace=wrap;html=1;" vertex="1" parent="1">
          <mxGeometry x="970" y="540" width="60" height="40" as="geometry" />
        </mxCell>
        <mxCell id="JJR9BL4tO18YjHwOmcb9-89" value="&lt;b&gt;From GCP&lt;/b&gt;&lt;br&gt;- Google APIs are access via non-public GCP IP, exits UB VPC via IGW&lt;br&gt;- VM-to-VM is protected by VPC firewall rules on the VM endpoints&lt;br&gt;&lt;div style=&quot;&quot;&gt;&lt;br&gt;&lt;/div&gt;" style="text;html=1;align=left;verticalAlign=middle;resizable=0;points=[];autosize=1;strokeColor=none;fillColor=none;" vertex="1" parent="1">
          <mxGeometry x="850" y="622.5" width="400" height="70" as="geometry" />
        </mxCell>
      </root>
    </mxGraphModel>
  </diagram>
</mxfile>
